/* XPM */
static char * eda_icon_xpm[] = {
"32 32 104 2",
"  	c None",
". 	c #04047E",
"+ 	c #04048B",
"@ 	c #040491",
"# 	c #020244",
"$ 	c #02023C",
"% 	c #010135",
"& 	c #01012E",
"* 	c #000028",
"= 	c #040495",
"- 	c #030359",
"; 	c #010125",
"> 	c #010120",
", 	c #040494",
"' 	c #040490",
") 	c #030366",
"! 	c #010124",
"~ 	c #01011D",
"{ 	c #030391",
"] 	c #03036B",
"^ 	c #020241",
"/ 	c #02023A",
"( 	c #01011C",
"_ 	c #0606CB",
": 	c #0606C9",
"< 	c #0606C4",
"[ 	c #0404A2",
"} 	c #05059C",
"| 	c #040496",
"1 	c #030390",
"2 	c #03036E",
"3 	c #020254",
"4 	c #010138",
"5 	c #010121",
"6 	c #0505C9",
"7 	c #0606C2",
"8 	c #0606C0",
"9 	c #0505A5",
"0 	c #040493",
"a 	c #03038E",
"b 	c #020256",
"c 	c #01013B",
"d 	c #020238",
"e 	c #0404BB",
"f 	c #0505A6",
"g 	c #04048F",
"h 	c #020255",
"i 	c #020239",
"j 	c #010136",
"k 	c #01011E",
"l 	c #0505BE",
"m 	c #0505B7",
"n 	c #0505A3",
"o 	c #03036D",
"p 	c #020258",
"q 	c #010122",
"r 	c #0404B7",
"s 	c #0505B4",
"t 	c #0505A1",
"u 	c #05059E",
"v 	c #040487",
"w 	c #02026A",
"x 	c #010155",
"y 	c #010151",
"z 	c #010123",
"A 	c #0505B0",
"B 	c #0505AF",
"C 	c #04049B",
"D 	c #040486",
"E 	c #030383",
"F 	c #020267",
"G 	c #020252",
"H 	c #02024D",
"I 	c #02023B",
"J 	c #010133",
"K 	c #00002D",
"L 	c #010127",
"M 	c #0505A8",
"N 	c #0404A9",
"O 	c #030396",
"P 	c #030382",
"Q 	c #040480",
"R 	c #020263",
"S 	c #02024F",
"T 	c #02024A",
"U 	c #020246",
"V 	c #010131",
"W 	c #00002B",
"X 	c #04049A",
"Y 	c #030384",
"Z 	c #03037A",
"` 	c #020273",
" .	c #03035E",
"..	c #05059B",
"+.	c #040499",
"@.	c #030399",
"#.	c #030397",
"$.	c #04048A",
"%.	c #030378",
"&.	c #030375",
"*.	c #020259",
"=.	c #01012A",
"-.	c #020245",
";.	c #02023F",
"                                                                ",
"                                                                ",
"                                                                ",
"                                                                ",
"                                                                ",
"                                                                ",
"                                                                ",
"                                                                ",
"                                    .                           ",
"                                +                               ",
"                              @                     # $ % & *   ",
"                            = @               -             ; > ",
"                            , '           )                 ! ~ ",
"                            {           ]           ^ /       ( ",
"      _ : <           [ } | 1         2       3       4     5 ( ",
"    6   7 8         9     0 a         2     b       c d     > ~ ",
"  < <   e e       f       g +       2 ]     h       i j     k   ",
"  l     m         n       +         o     p 3       i     q >   ",
"r r   s         t u       v         w     x y       j     z     ",
"A B             C       D E         F     G H     I J K L       ",
"M N             O       P Q         R     S T U     V W         ",
"[ t     X       '     Y . Z `        .                          ",
"..+.@.#.        $.D     %.&.        *.3             =.          ",
"                                      y T -.;./                 ",
"                                                                ",
"                                                                ",
"                                                                ",
"                                                                ",
"                                                                ",
"                                                                ",
"                                                                ",
"                                                                "};
